<svg width="2709" height="613" viewBox="0 0 2709 613" fill="none" xmlns="http://www.w3.org/2000/svg">
<path d="M818.455 147.6H874.455V261.6C890.455 240.4 913.655 228.8 940.055 228.8C1000.05 228.8 1037.25 282 1037.25 339.2C1037.25 396.4 998.855 452 936.855 452C910.455 452 886.455 440.8 871.655 418.4L870.055 446H818.455V147.6ZM926.855 279.2C893.655 279.2 873.655 308.8 873.655 340.4C873.655 371.2 893.255 401.6 926.855 401.6C960.055 401.6 980.055 372 980.055 340.4C980.055 309.2 960.855 279.2 926.855 279.2ZM1073.92 446V147.6H1129.92V446H1073.92ZM1166.7 340.4C1166.7 277.6 1213.9 228.8 1277.9 228.8C1340.7 228.8 1387.5 276 1387.5 340C1387.5 403.2 1341.1 452 1276.3 452C1213.5 452 1166.7 404 1166.7 340.4ZM1277.1 279.2C1243.9 279.2 1223.9 308.8 1223.9 340.4C1223.9 371.2 1243.5 401.6 1277.1 401.6C1310.3 401.6 1330.3 372 1330.3 340.4C1330.3 309.2 1311.1 279.2 1277.1 279.2ZM1418.27 342C1418.27 281.2 1461.87 228.8 1525.87 228.8C1569.87 228.8 1607.87 254 1619.07 298L1565.87 308.4C1558.27 290.8 1544.27 279.2 1524.67 279.2C1491.47 279.2 1475.47 311.6 1475.47 341.2C1475.47 370.4 1491.47 401.6 1524.67 401.6C1544.27 401.6 1560.67 390.8 1567.87 372.4L1621.07 382.8C1609.47 427.2 1569.07 452 1524.27 452C1462.67 452 1418.27 404 1418.27 342ZM1654.78 147.6H1709.58V320.8L1787.98 234.8H1853.58L1765.58 328.4L1863.18 446H1792.38L1709.58 340.8V446H1654.78V147.6ZM1872 234.8H1908V222.8C1908 177.2 1940 143.6 1987.2 143.6C2001.6 143.6 2016.4 147.2 2029.2 154L2018 196.8C2010.4 193.2 2003.6 190.8 1995.2 190.8C1972.4 190.8 1964 205.2 1964 226.4V234.8H2020V280H1964V446H1908V280H1872V234.8ZM2051.27 446V147.6H2107.27V446H2051.27ZM2144.05 340.4C2144.05 277.6 2191.25 228.8 2255.25 228.8C2318.05 228.8 2364.85 276 2364.85 340C2364.85 403.2 2318.45 452 2253.65 452C2190.85 452 2144.05 404 2144.05 340.4ZM2254.45 279.2C2221.25 279.2 2201.25 308.8 2201.25 340.4C2201.25 371.2 2220.85 401.6 2254.45 401.6C2287.65 401.6 2307.65 372 2307.65 340.4C2307.65 309.2 2288.45 279.2 2254.45 279.2ZM2447.41 446L2377.41 234.8H2435.01L2474.61 377.6L2517.41 234.8H2565.81L2608.61 378L2649.01 234.8H2704.61L2634.61 446H2583.01L2540.61 303.2L2498.21 446H2447.41Z" fill="#070B17"/>
<path d="M331.14 88.1503C328.482 86.8808 325.467 86.2125 322.398 86.2125V612.066C325.467 612.066 328.482 611.397 331.14 610.128L591.258 485.931C593.917 484.661 596.126 482.834 597.66 480.633C599.195 478.433 600.002 475.936 600 473.396V224.93C600.002 222.39 599.195 219.894 597.66 217.693C596.126 215.493 593.917 213.665 591.258 212.395L331.14 88.1503Z" fill="#070B17"/>
<path d="M268.859 1.93779C271.518 0.668322 274.533 0 277.602 0V525.853C274.533 525.853 271.518 525.185 268.859 523.915L8.7424 399.719C6.0827 398.449 3.87442 396.621 2.33969 394.421C0.804962 392.22 -0.00198364 389.724 -3.05176e-05 387.183V138.718C-0.00198364 136.177 0.804962 133.681 2.33969 131.481C3.87442 129.28 6.0827 127.453 8.7424 126.183L268.859 1.93779Z" fill="#070B17"/>
</svg>
