<svg width="1168" height="1072" viewBox="0 0 1168 1072" fill="none" xmlns="http://www.w3.org/2000/svg">
<rect width="1168" height="1072" fill="white"/>
<path d="M614.945 319.566C612.304 318.305 609.309 317.641 606.26 317.641V840.008C609.309 840.008 612.304 839.344 614.945 838.083L873.337 714.71C875.979 713.448 878.173 711.633 879.697 709.447C881.222 707.261 882.023 704.781 882.021 702.257V455.439C882.023 452.916 881.222 450.436 879.697 448.25C878.173 446.064 875.979 444.249 873.337 442.987L614.945 319.566Z" fill="#070B17"/>
<path d="M553.077 233.925C555.717 232.664 558.712 232 561.761 232V754.366C558.712 754.366 555.717 753.702 553.077 752.441L294.684 629.068C292.042 627.806 289.849 625.991 288.324 623.805C286.8 621.619 285.998 619.14 286 616.616V369.798C285.998 367.274 286.8 364.795 288.324 362.609C289.849 360.423 292.042 358.608 294.684 357.346L553.077 233.925Z" fill="#070B17"/>
</svg>
